<!DOCTYPE svg PUBLIC "-//W3C//DTD SVG 1.1//EN" "http://www.w3.org/Graphics/SVG/1.1/DTD/svg11.dtd">
<!-- Uploaded to: SVG Repo, www.svgrepo.com, Transformed by: SVG Repo Mixer Tools -->
<svg width="800px" height="800px" viewBox="0 0 48.00 48.00" xmlns="http://www.w3.org/2000/svg" fill="#000000" stroke="#000000" stroke-width="2.4">
<g id="SVGRepo_bgCarrier" stroke-width="0">
<rect x="0" y="0" width="48.00" height="48.00" rx="15.36" fill="#123d88" strokewidth="0"/>
</g>
<g id="SVGRepo_tracerCarrier" stroke-linecap="round" stroke-linejoin="round"/>
<g id="SVGRepo_iconCarrier">
<defs>
<style>.a{fill:none;stroke:#09ACF7;stroke-linecap:round;stroke-linejoin:round;}</style>
</defs>
<path class="a" d="M22.4816,34.8111l-1.3569,2.0395a1.3228,1.3228,0,0,1-2.26-.0935l1.3986,2.534a3.9771,3.9771,0,0,0,.9285,1.1333l0,0a3.9744,3.9744,0,0,0,5.864-.8738L42.345,16.2515a3.9686,3.9686,0,0,0-2.866-6.12l-30.05-3.446a3.9687,3.9687,0,0,0-3.9267,5.8606l.1186.2149L31.1987,15.72A2.2048,2.2048,0,0,1,32.788,19.121Z"/>
<line class="a" x1="5.6207" y1="12.761" x2="18.8651" y2="36.7571"/>
</g>
</svg>